<svg width="1603" height="606" viewBox="0 0 1603 606" fill="none" xmlns="http://www.w3.org/2000/svg">
<g clip-path="url(#clip0_222_33)">
<rect width="1603" height="606" fill="white"></rect>
<rect width="1603" height="606" fill="#1B194B"></rect>
<path d="M579.9 320.4C574.367 320.4 569.233 319.533 564.5 317.8C559.833 316 555.767 313.467 552.3 310.2C548.9 306.933 546.233 303.1 544.3 298.7C542.367 294.233 541.4 289.333 541.4 284C541.4 278.667 542.367 273.8 544.3 269.4C546.233 264.933 548.9 261.067 552.3 257.8C555.767 254.533 559.833 252.033 564.5 250.3C569.233 248.5 574.367 247.6 579.9 247.6C586.367 247.6 592.133 248.733 597.2 251C602.333 253.267 606.6 256.533 610 260.8L597.4 272.2C595.133 269.533 592.633 267.5 589.9 266.1C587.233 264.7 584.233 264 580.9 264C578.033 264 575.4 264.467 573 265.4C570.6 266.333 568.533 267.7 566.8 269.5C565.133 271.233 563.8 273.333 562.8 275.8C561.867 278.267 561.4 281 561.4 284C561.4 287 561.867 289.733 562.8 292.2C563.8 294.667 565.133 296.8 566.8 298.6C568.533 300.333 570.6 301.667 573 302.6C575.4 303.533 578.033 304 580.9 304C584.233 304 587.233 303.3 589.9 301.9C592.633 300.5 595.133 298.467 597.4 295.8L610 307.2C606.6 311.4 602.333 314.667 597.2 317C592.133 319.267 586.367 320.4 579.9 320.4ZM652.663 320.4C647.063 320.4 641.897 319.5 637.163 317.7C632.43 315.9 628.297 313.367 624.763 310.1C621.297 306.767 618.597 302.9 616.663 298.5C614.73 294.1 613.763 289.267 613.763 284C613.763 278.733 614.73 273.9 616.663 269.5C618.597 265.1 621.297 261.267 624.763 258C628.297 254.667 632.43 252.1 637.163 250.3C641.897 248.5 647.063 247.6 652.663 247.6C658.33 247.6 663.497 248.5 668.163 250.3C672.897 252.1 676.997 254.667 680.463 258C683.93 261.267 686.63 265.1 688.563 269.5C690.563 273.9 691.563 278.733 691.563 284C691.563 289.267 690.563 294.133 688.563 298.6C686.63 303 683.93 306.833 680.463 310.1C676.997 313.367 672.897 315.9 668.163 317.7C663.497 319.5 658.33 320.4 652.663 320.4ZM652.663 304C655.33 304 657.797 303.533 660.063 302.6C662.397 301.667 664.397 300.333 666.063 298.6C667.797 296.8 669.13 294.667 670.063 292.2C671.063 289.733 671.563 287 671.563 284C671.563 280.933 671.063 278.2 670.063 275.8C669.13 273.333 667.797 271.233 666.063 269.5C664.397 267.7 662.397 266.333 660.063 265.4C657.797 264.467 655.33 264 652.663 264C649.997 264 647.497 264.467 645.163 265.4C642.897 266.333 640.897 267.7 639.163 269.5C637.497 271.233 636.163 273.333 635.163 275.8C634.23 278.2 633.763 280.933 633.763 284C633.763 287 634.23 289.733 635.163 292.2C636.163 294.667 637.497 296.8 639.163 298.6C640.897 300.333 642.897 301.667 645.163 302.6C647.497 303.533 649.997 304 652.663 304ZM736.834 320.4C731.3 320.4 726.167 319.533 721.434 317.8C716.767 316 712.7 313.467 709.234 310.2C705.834 306.933 703.167 303.1 701.234 298.7C699.3 294.233 698.334 289.333 698.334 284C698.334 278.667 699.3 273.8 701.234 269.4C703.167 264.933 705.834 261.067 709.234 257.8C712.7 254.533 716.767 252.033 721.434 250.3C726.167 248.5 731.3 247.6 736.834 247.6C743.3 247.6 749.067 248.733 754.134 251C759.267 253.267 763.534 256.533 766.934 260.8L754.334 272.2C752.067 269.533 749.567 267.5 746.834 266.1C744.167 264.7 741.167 264 737.834 264C734.967 264 732.334 264.467 729.934 265.4C727.534 266.333 725.467 267.7 723.734 269.5C722.067 271.233 720.734 273.333 719.734 275.8C718.8 278.267 718.334 281 718.334 284C718.334 287 718.8 289.733 719.734 292.2C720.734 294.667 722.067 296.8 723.734 298.6C725.467 300.333 727.534 301.667 729.934 302.6C732.334 303.533 734.967 304 737.834 304C741.167 304 744.167 303.3 746.834 301.9C749.567 300.5 752.067 298.467 754.334 295.8L766.934 307.2C763.534 311.4 759.267 314.667 754.134 317C749.067 319.267 743.3 320.4 736.834 320.4ZM809.597 320.4C803.997 320.4 798.83 319.5 794.097 317.7C789.364 315.9 785.23 313.367 781.697 310.1C778.23 306.767 775.53 302.9 773.597 298.5C771.664 294.1 770.697 289.267 770.697 284C770.697 278.733 771.664 273.9 773.597 269.5C775.53 265.1 778.23 261.267 781.697 258C785.23 254.667 789.364 252.1 794.097 250.3C798.83 248.5 803.997 247.6 809.597 247.6C815.264 247.6 820.43 248.5 825.097 250.3C829.83 252.1 833.93 254.667 837.397 258C840.864 261.267 843.564 265.1 845.497 269.5C847.497 273.9 848.497 278.733 848.497 284C848.497 289.267 847.497 294.133 845.497 298.6C843.564 303 840.864 306.833 837.397 310.1C833.93 313.367 829.83 315.9 825.097 317.7C820.43 319.5 815.264 320.4 809.597 320.4ZM809.597 304C812.264 304 814.73 303.533 816.997 302.6C819.33 301.667 821.33 300.333 822.997 298.6C824.73 296.8 826.064 294.667 826.997 292.2C827.997 289.733 828.497 287 828.497 284C828.497 280.933 827.997 278.2 826.997 275.8C826.064 273.333 824.73 271.233 822.997 269.5C821.33 267.7 819.33 266.333 816.997 265.4C814.73 264.467 812.264 264 809.597 264C806.93 264 804.43 264.467 802.097 265.4C799.83 266.333 797.83 267.7 796.097 269.5C794.43 271.233 793.097 273.333 792.097 275.8C791.164 278.2 790.697 280.933 790.697 284C790.697 287 791.164 289.733 792.097 292.2C793.097 294.667 794.43 296.8 796.097 298.6C797.83 300.333 799.83 301.667 802.097 302.6C804.43 303.533 806.93 304 809.597 304ZM912.569 320.4C906.835 320.4 901.302 319.7 895.969 318.3C890.702 316.833 886.402 314.967 883.069 312.7L889.569 298.1C892.702 300.1 896.302 301.767 900.369 303.1C904.502 304.367 908.602 305 912.669 305C915.402 305 917.602 304.767 919.269 304.3C920.935 303.767 922.135 303.1 922.869 302.3C923.669 301.433 924.069 300.433 924.069 299.3C924.069 297.7 923.335 296.433 921.869 295.5C920.402 294.567 918.502 293.8 916.169 293.2C913.835 292.6 911.235 292 908.369 291.4C905.569 290.8 902.735 290.033 899.869 289.1C897.069 288.167 894.502 286.967 892.169 285.5C889.835 283.967 887.935 282 886.469 279.6C885.002 277.133 884.269 274.033 884.269 270.3C884.269 266.1 885.402 262.3 887.669 258.9C890.002 255.5 893.469 252.767 898.069 250.7C902.669 248.633 908.402 247.6 915.269 247.6C919.869 247.6 924.369 248.133 928.769 249.2C933.235 250.2 937.202 251.7 940.669 253.7L934.569 268.4C931.235 266.6 927.935 265.267 924.669 264.4C921.402 263.467 918.235 263 915.169 263C912.435 263 910.235 263.3 908.569 263.9C906.902 264.433 905.702 265.167 904.969 266.1C904.235 267.033 903.869 268.1 903.869 269.3C903.869 270.833 904.569 272.067 905.969 273C907.435 273.867 909.335 274.6 911.669 275.2C914.069 275.733 916.669 276.3 919.469 276.9C922.335 277.5 925.169 278.267 927.969 279.2C930.835 280.067 933.435 281.267 935.769 282.8C938.102 284.267 939.969 286.233 941.369 288.7C942.835 291.1 943.569 294.133 943.569 297.8C943.569 301.867 942.402 305.633 940.069 309.1C937.802 312.5 934.369 315.233 929.769 317.3C925.235 319.367 919.502 320.4 912.569 320.4ZM944.315 319L975.215 249H994.715L1025.71 319H1005.11L980.915 258.7H988.715L964.515 319H944.315ZM961.215 305.4L966.315 290.8H1000.51L1005.61 305.4H961.215ZM1031.33 319V249H1051.13V303.3H1084.53V319H1031.33ZM1126.59 320.4C1120.99 320.4 1115.82 319.5 1111.09 317.7C1106.36 315.9 1102.22 313.367 1098.69 310.1C1095.22 306.767 1092.52 302.9 1090.59 298.5C1088.66 294.1 1087.69 289.267 1087.69 284C1087.69 278.733 1088.66 273.9 1090.59 269.5C1092.52 265.1 1095.22 261.267 1098.69 258C1102.22 254.667 1106.36 252.1 1111.09 250.3C1115.82 248.5 1120.99 247.6 1126.59 247.6C1132.26 247.6 1137.42 248.5 1142.09 250.3C1146.82 252.1 1150.92 254.667 1154.39 258C1157.86 261.267 1160.56 265.1 1162.49 269.5C1164.49 273.9 1165.49 278.733 1165.49 284C1165.49 289.267 1164.49 294.133 1162.49 298.6C1160.56 303 1157.86 306.833 1154.39 310.1C1150.92 313.367 1146.82 315.9 1142.09 317.7C1137.42 319.5 1132.26 320.4 1126.59 320.4ZM1126.59 304C1129.26 304 1131.72 303.533 1133.99 302.6C1136.32 301.667 1138.32 300.333 1139.99 298.6C1141.72 296.8 1143.06 294.667 1143.99 292.2C1144.99 289.733 1145.49 287 1145.49 284C1145.49 280.933 1144.99 278.2 1143.99 275.8C1143.06 273.333 1141.72 271.233 1139.99 269.5C1138.32 267.7 1136.32 266.333 1133.99 265.4C1131.72 264.467 1129.26 264 1126.59 264C1123.92 264 1121.42 264.467 1119.09 265.4C1116.82 266.333 1114.82 267.7 1113.09 269.5C1111.42 271.233 1110.09 273.333 1109.09 275.8C1108.16 278.2 1107.69 280.933 1107.69 284C1107.69 287 1108.16 289.733 1109.09 292.2C1110.09 294.667 1111.42 296.8 1113.09 298.6C1114.82 300.333 1116.82 301.667 1119.09 302.6C1121.42 303.533 1123.92 304 1126.59 304ZM1175.86 319V249H1192.16L1230.76 295.6H1223.06V249H1242.46V319H1226.16L1187.56 272.4H1195.26V319H1175.86ZM1281.03 320.4C1275.29 320.4 1269.76 319.7 1264.43 318.3C1259.16 316.833 1254.86 314.967 1251.53 312.7L1258.03 298.1C1261.16 300.1 1264.76 301.767 1268.83 303.1C1272.96 304.367 1277.06 305 1281.13 305C1283.86 305 1286.06 304.767 1287.73 304.3C1289.39 303.767 1290.59 303.1 1291.33 302.3C1292.13 301.433 1292.53 300.433 1292.53 299.3C1292.53 297.7 1291.79 296.433 1290.33 295.5C1288.86 294.567 1286.96 293.8 1284.63 293.2C1282.29 292.6 1279.69 292 1276.83 291.4C1274.03 290.8 1271.19 290.033 1268.33 289.1C1265.53 288.167 1262.96 286.967 1260.63 285.5C1258.29 283.967 1256.39 282 1254.93 279.6C1253.46 277.133 1252.73 274.033 1252.73 270.3C1252.73 266.1 1253.86 262.3 1256.13 258.9C1258.46 255.5 1261.93 252.767 1266.53 250.7C1271.13 248.633 1276.86 247.6 1283.73 247.6C1288.33 247.6 1292.83 248.133 1297.23 249.2C1301.69 250.2 1305.66 251.7 1309.13 253.7L1303.03 268.4C1299.69 266.6 1296.39 265.267 1293.13 264.4C1289.86 263.467 1286.69 263 1283.63 263C1280.89 263 1278.69 263.3 1277.03 263.9C1275.36 264.433 1274.16 265.167 1273.43 266.1C1272.69 267.033 1272.33 268.1 1272.33 269.3C1272.33 270.833 1273.03 272.067 1274.43 273C1275.89 273.867 1277.79 274.6 1280.13 275.2C1282.53 275.733 1285.13 276.3 1287.93 276.9C1290.79 277.5 1293.63 278.267 1296.43 279.2C1299.29 280.067 1301.89 281.267 1304.23 282.8C1306.56 284.267 1308.43 286.233 1309.83 288.7C1311.29 291.1 1312.03 294.133 1312.03 297.8C1312.03 301.867 1310.86 305.633 1308.53 309.1C1306.26 312.5 1302.83 315.233 1298.23 317.3C1293.69 319.367 1287.96 320.4 1281.03 320.4Z" fill="white"></path>
<path d="M552.592 377.941V354.541H558.784V363.253H565.768V354.541H571.96V377.941H565.768V368.653H558.784V377.941H552.592ZM588.579 366.565L588.183 368.185H592.503L592.107 366.565C591.819 365.437 591.531 364.213 591.243 362.893C590.955 361.573 590.667 360.325 590.379 359.149H590.235C589.971 360.349 589.695 361.609 589.407 362.929C589.143 364.225 588.867 365.437 588.579 366.565ZM579.579 377.941L586.707 354.541H594.195L601.323 377.941H594.771L593.619 372.973H587.067L585.915 377.941H579.579ZM608.954 377.941V354.541H615.146V377.941H608.954ZM625.745 377.941V354.541H634.601C635.849 354.541 637.037 354.661 638.165 354.901C639.317 355.141 640.313 355.549 641.153 356.125C642.017 356.701 642.701 357.481 643.205 358.465C643.709 359.425 643.961 360.637 643.961 362.101C643.961 363.781 643.613 365.173 642.917 366.277C642.245 367.381 641.333 368.245 640.181 368.869L645.257 377.941H638.345L634.313 370.093H631.937V377.941H625.745ZM631.937 365.197H634.169C636.665 365.197 637.913 364.165 637.913 362.101C637.913 361.093 637.589 360.397 636.941 360.013C636.317 359.629 635.393 359.437 634.169 359.437H631.937V365.197ZM654.109 385.285L652.885 382.045C654.349 381.565 655.441 380.929 656.161 380.137C656.905 379.345 657.265 378.517 657.241 377.653H656.989C656.053 377.653 655.213 377.365 654.469 376.789C653.749 376.189 653.389 375.349 653.389 374.269C653.389 373.261 653.749 372.445 654.469 371.821C655.189 371.197 656.077 370.885 657.133 370.885C658.477 370.885 659.497 371.377 660.193 372.361C660.889 373.345 661.237 374.725 661.237 376.501C661.237 378.637 660.637 380.473 659.437 382.009C658.237 383.545 656.461 384.637 654.109 385.285ZM683.359 377.941V354.541H691.783C693.007 354.541 694.159 354.637 695.239 354.829C696.319 354.997 697.255 355.297 698.047 355.729C698.839 356.161 699.463 356.761 699.919 357.529C700.399 358.273 700.639 359.221 700.639 360.373C700.639 360.877 700.567 361.393 700.423 361.921C700.279 362.425 700.075 362.917 699.811 363.397C699.571 363.853 699.271 364.261 698.911 364.621C698.551 364.981 698.143 365.245 697.687 365.413V365.557C698.815 365.893 699.763 366.505 700.531 367.393C701.323 368.257 701.719 369.469 701.719 371.029C701.719 372.229 701.467 373.273 700.963 374.161C700.483 375.025 699.823 375.745 698.983 376.321C698.167 376.873 697.195 377.281 696.067 377.545C694.939 377.809 693.751 377.941 692.503 377.941H683.359ZM689.551 363.685H691.639C692.647 363.685 693.391 363.469 693.871 363.037C694.351 362.605 694.591 362.029 694.591 361.309C694.591 360.589 694.351 360.073 693.871 359.761C693.391 359.449 692.647 359.293 691.639 359.293H689.551V363.685ZM689.551 373.189H692.071C694.471 373.189 695.671 372.325 695.671 370.597C695.671 369.733 695.371 369.121 694.771 368.761C694.195 368.401 693.295 368.221 692.071 368.221H689.551V373.189ZM710.802 377.941V354.541H725.922V359.725H716.994V363.397H724.626V368.581H716.994V372.757H726.282V377.941H710.802ZM742.254 366.565L741.858 368.185H746.178L745.782 366.565C745.494 365.437 745.206 364.213 744.918 362.893C744.63 361.573 744.342 360.325 744.054 359.149H743.91C743.646 360.349 743.37 361.609 743.082 362.929C742.818 364.225 742.542 365.437 742.254 366.565ZM733.254 377.941L740.382 354.541H747.87L754.998 377.941H748.446L747.294 372.973H740.742L739.59 377.941H733.254ZM771.854 378.373C768.566 378.373 766.118 377.425 764.51 375.529C762.926 373.609 762.134 370.645 762.134 366.637V354.541H768.326V367.357C768.326 369.445 768.602 370.921 769.154 371.785C769.73 372.625 770.63 373.045 771.854 373.045C773.078 373.045 773.978 372.625 774.554 371.785C775.154 370.921 775.454 369.445 775.454 367.357V354.541H781.43V366.637C781.43 370.645 780.65 373.609 779.09 375.529C777.53 377.425 775.118 378.373 771.854 378.373ZM796.329 377.941V359.725H790.137V354.541H808.713V359.725H802.521V377.941H796.329ZM820.987 377.941V369.877L813.931 354.541H820.555L822.283 359.437C822.571 360.325 822.859 361.189 823.147 362.029C823.435 362.869 823.735 363.745 824.047 364.657H824.191C824.503 363.745 824.803 362.869 825.091 362.029C825.403 361.189 825.715 360.325 826.027 359.437L827.755 354.541H834.235L827.179 369.877V377.941H820.987ZM861.888 378.373C860.4 378.373 858.864 378.109 857.28 377.581C855.72 377.029 854.304 376.177 853.032 375.025L856.56 370.777C857.4 371.449 858.3 372.001 859.26 372.433C860.244 372.841 861.168 373.045 862.032 373.045C862.968 373.045 863.64 372.901 864.048 372.613C864.48 372.325 864.696 371.917 864.696 371.389C864.696 371.101 864.624 370.861 864.48 370.669C864.336 370.477 864.12 370.297 863.832 370.129C863.568 369.961 863.244 369.805 862.86 369.661C862.476 369.493 862.032 369.313 861.528 369.121L858.612 367.897C857.988 367.657 857.388 367.345 856.812 366.961C856.236 366.553 855.732 366.085 855.3 365.557C854.868 365.005 854.52 364.381 854.256 363.685C854.016 362.989 853.896 362.221 853.896 361.381C853.896 360.373 854.112 359.437 854.544 358.573C854.976 357.685 855.576 356.917 856.344 356.269C857.112 355.597 858.024 355.069 859.08 354.685C860.16 354.301 861.336 354.109 862.608 354.109C863.952 354.109 865.308 354.361 866.676 354.865C868.068 355.369 869.304 356.161 870.384 357.241L867.288 361.129C866.496 360.577 865.728 360.157 864.984 359.869C864.264 359.581 863.472 359.437 862.608 359.437C861.84 359.437 861.24 359.569 860.808 359.833C860.376 360.097 860.16 360.493 860.16 361.021C860.16 361.573 860.46 362.005 861.06 362.317C861.684 362.605 862.536 362.953 863.616 363.361L866.46 364.477C867.924 365.053 869.052 365.857 869.844 366.889C870.636 367.921 871.032 369.253 871.032 370.885C871.032 371.869 870.828 372.817 870.42 373.729C870.012 374.641 869.412 375.445 868.62 376.141C867.852 376.813 866.904 377.353 865.776 377.761C864.648 378.169 863.352 378.373 861.888 378.373ZM886.24 366.565L885.844 368.185H890.164L889.768 366.565C889.48 365.437 889.192 364.213 888.904 362.893C888.616 361.573 888.328 360.325 888.04 359.149H887.896C887.632 360.349 887.356 361.609 887.068 362.929C886.804 364.225 886.528 365.437 886.24 366.565ZM877.24 377.941L884.368 354.541H891.856L898.984 377.941H892.432L891.28 372.973H884.728L883.576 377.941H877.24ZM906.615 377.941V354.541H912.807V372.757H921.663V377.941H906.615ZM939.528 378.373C937.896 378.373 936.408 378.097 935.064 377.545C933.744 376.993 932.604 376.201 931.644 375.169C930.708 374.113 929.976 372.829 929.448 371.317C928.92 369.781 928.656 368.053 928.656 366.133C928.656 364.213 928.92 362.509 929.448 361.021C929.976 359.509 930.708 358.249 931.644 357.241C932.604 356.209 933.744 355.429 935.064 354.901C936.408 354.373 937.896 354.109 939.528 354.109C941.136 354.109 942.612 354.373 943.956 354.901C945.3 355.429 946.44 356.209 947.376 357.241C948.336 358.273 949.08 359.533 949.608 361.021C950.136 362.509 950.4 364.213 950.4 366.133C950.4 368.053 950.136 369.781 949.608 371.317C949.08 372.829 948.336 374.113 947.376 375.169C946.44 376.201 945.3 376.993 943.956 377.545C942.612 378.097 941.136 378.373 939.528 378.373ZM939.528 373.045C940.944 373.045 942.048 372.433 942.84 371.209C943.656 369.961 944.064 368.269 944.064 366.133C944.064 363.997 943.656 362.353 942.84 361.201C942.048 360.025 940.944 359.437 939.528 359.437C938.112 359.437 936.996 360.025 936.18 361.201C935.388 362.353 934.992 363.997 934.992 366.133C934.992 368.269 935.388 369.961 936.18 371.209C936.996 372.433 938.112 373.045 939.528 373.045ZM959.99 377.941V354.541H966.326L971.51 364.981L973.742 370.237H973.886C973.814 369.613 973.73 368.929 973.634 368.185C973.538 367.441 973.454 366.685 973.382 365.917C973.31 365.125 973.238 364.345 973.166 363.577C973.118 362.785 973.094 362.029 973.094 361.309V354.541H978.998V377.941H972.662L967.478 367.465L965.246 362.245H965.102C965.246 363.589 965.414 365.053 965.606 366.637C965.798 368.221 965.894 369.733 965.894 371.173V377.941H959.99ZM1008.45 378.373C1007.08 378.373 1005.89 378.193 1004.88 377.833C1003.88 377.449 1003.04 376.945 1002.36 376.321C1001.72 375.697 1001.22 374.977 1000.89 374.161C1000.55 373.345 1000.38 372.493 1000.38 371.605C1000.38 370.789 1000.49 370.057 1000.71 369.409C1000.92 368.737 1001.22 368.149 1001.61 367.645C1001.99 367.117 1002.44 366.649 1002.94 366.241C1003.44 365.809 1003.97 365.425 1004.52 365.089C1004.07 364.273 1003.72 363.469 1003.48 362.677C1003.24 361.885 1003.12 361.141 1003.12 360.445C1003.12 359.605 1003.28 358.801 1003.59 358.033C1003.9 357.265 1004.34 356.593 1004.92 356.017C1005.52 355.441 1006.23 354.985 1007.04 354.649C1007.88 354.289 1008.83 354.109 1009.89 354.109C1011.76 354.109 1013.26 354.613 1014.39 355.621C1015.52 356.605 1016.08 357.949 1016.08 359.653C1016.08 360.421 1015.95 361.117 1015.68 361.741C1015.42 362.365 1015.07 362.941 1014.64 363.469C1014.21 363.997 1013.7 364.489 1013.13 364.945C1012.58 365.377 1012 365.785 1011.4 366.169C1012 366.793 1012.65 367.405 1013.34 368.005C1014.04 368.581 1014.76 369.133 1015.5 369.661C1016.06 368.941 1016.55 368.149 1016.98 367.285C1017.41 366.421 1017.76 365.485 1018.02 364.477H1023.64C1023.23 365.845 1022.72 367.165 1022.09 368.437C1021.47 369.709 1020.71 370.945 1019.82 372.145C1021.24 372.841 1022.54 373.261 1023.71 373.405L1022.27 378.373C1021.24 378.181 1020.2 377.893 1019.14 377.509C1018.11 377.125 1017.06 376.657 1016.01 376.105C1014.98 376.801 1013.84 377.353 1012.59 377.761C1011.34 378.169 1009.96 378.373 1008.45 378.373ZM1008.2 360.445C1008.2 361.189 1008.41 361.969 1008.84 362.785C1009.59 362.353 1010.2 361.897 1010.68 361.417C1011.16 360.937 1011.4 360.349 1011.4 359.653C1011.4 358.645 1010.94 358.141 1010.03 358.141C1009.55 358.141 1009.12 358.333 1008.74 358.717C1008.38 359.101 1008.2 359.677 1008.2 360.445ZM1009.24 373.693C1009.94 373.693 1010.7 373.501 1011.54 373.117C1009.91 371.821 1008.5 370.465 1007.3 369.049C1006.96 369.385 1006.7 369.733 1006.5 370.093C1006.31 370.453 1006.22 370.837 1006.22 371.245C1006.22 371.965 1006.48 372.553 1007.01 373.009C1007.56 373.465 1008.3 373.693 1009.24 373.693ZM1045.05 377.941V354.541H1051.38L1056.57 364.981L1058.8 370.237H1058.94C1058.87 369.613 1058.79 368.929 1058.69 368.185C1058.59 367.441 1058.51 366.685 1058.44 365.917C1058.37 365.125 1058.29 364.345 1058.22 363.577C1058.17 362.785 1058.15 362.029 1058.15 361.309V354.541H1064.05V377.941H1057.72L1052.53 367.465L1050.3 362.245H1050.16C1050.3 363.589 1050.47 365.053 1050.66 366.637C1050.85 368.221 1050.95 369.733 1050.95 371.173V377.941H1045.05ZM1080.68 366.565L1080.29 368.185H1084.61L1084.21 366.565C1083.92 365.437 1083.63 364.213 1083.35 362.893C1083.06 361.573 1082.77 360.325 1082.48 359.149H1082.34C1082.07 360.349 1081.8 361.609 1081.51 362.929C1081.25 364.225 1080.97 365.437 1080.68 366.565ZM1071.68 377.941L1078.81 354.541H1086.3L1093.43 377.941H1086.87L1085.72 372.973H1079.17L1078.02 377.941H1071.68ZM1101.06 377.941V354.541H1107.25V377.941H1101.06ZM1117.85 377.941V354.541H1124.04V372.757H1132.9V377.941H1117.85ZM1162.36 378.373C1160.87 378.373 1159.34 378.109 1157.75 377.581C1156.19 377.029 1154.78 376.177 1153.51 375.025L1157.03 370.777C1157.87 371.449 1158.77 372.001 1159.73 372.433C1160.72 372.841 1161.64 373.045 1162.51 373.045C1163.44 373.045 1164.11 372.901 1164.52 372.613C1164.95 372.325 1165.17 371.917 1165.17 371.389C1165.17 371.101 1165.1 370.861 1164.95 370.669C1164.81 370.477 1164.59 370.297 1164.31 370.129C1164.04 369.961 1163.72 369.805 1163.33 369.661C1162.95 369.493 1162.51 369.313 1162 369.121L1159.09 367.897C1158.46 367.657 1157.86 367.345 1157.29 366.961C1156.71 366.553 1156.21 366.085 1155.77 365.557C1155.34 365.005 1154.99 364.381 1154.73 363.685C1154.49 362.989 1154.37 362.221 1154.37 361.381C1154.37 360.373 1154.59 359.437 1155.02 358.573C1155.45 357.685 1156.05 356.917 1156.82 356.269C1157.59 355.597 1158.5 355.069 1159.55 354.685C1160.63 354.301 1161.81 354.109 1163.08 354.109C1164.43 354.109 1165.78 354.361 1167.15 354.865C1168.54 355.369 1169.78 356.161 1170.86 357.241L1167.76 361.129C1166.97 360.577 1166.2 360.157 1165.46 359.869C1164.74 359.581 1163.95 359.437 1163.08 359.437C1162.31 359.437 1161.71 359.569 1161.28 359.833C1160.85 360.097 1160.63 360.493 1160.63 361.021C1160.63 361.573 1160.93 362.005 1161.53 362.317C1162.16 362.605 1163.01 362.953 1164.09 363.361L1166.93 364.477C1168.4 365.053 1169.53 365.857 1170.32 366.889C1171.11 367.921 1171.51 369.253 1171.51 370.885C1171.51 371.869 1171.3 372.817 1170.89 373.729C1170.49 374.641 1169.89 375.445 1169.09 376.141C1168.33 376.813 1167.38 377.353 1166.25 377.761C1165.12 378.169 1163.83 378.373 1162.36 378.373ZM1184.43 377.941V359.725H1178.23V354.541H1196.81V359.725H1190.62V377.941H1184.43ZM1215.26 378.373C1211.97 378.373 1209.52 377.425 1207.91 375.529C1206.33 373.609 1205.54 370.645 1205.54 366.637V354.541H1211.73V367.357C1211.73 369.445 1212.01 370.921 1212.56 371.785C1213.13 372.625 1214.03 373.045 1215.26 373.045C1216.48 373.045 1217.38 372.625 1217.96 371.785C1218.56 370.921 1218.86 369.445 1218.86 367.357V354.541H1224.83V366.637C1224.83 370.645 1224.05 373.609 1222.49 375.529C1220.93 377.425 1218.52 378.373 1215.26 378.373ZM1235.27 377.941V354.541H1242.18C1243.96 354.541 1245.58 354.757 1247.04 355.189C1248.53 355.621 1249.8 356.305 1250.86 357.241C1251.91 358.177 1252.73 359.377 1253.31 360.841C1253.91 362.305 1254.21 364.069 1254.21 366.133C1254.21 368.197 1253.92 369.973 1253.34 371.461C1252.77 372.949 1251.95 374.173 1250.89 375.133C1249.86 376.093 1248.63 376.801 1247.19 377.257C1245.77 377.713 1244.22 377.941 1242.54 377.941H1235.27ZM1241.46 372.973H1241.82C1242.66 372.973 1243.45 372.877 1244.2 372.685C1244.94 372.469 1245.58 372.109 1246.11 371.605C1246.66 371.101 1247.09 370.405 1247.4 369.517C1247.71 368.629 1247.87 367.501 1247.87 366.133C1247.87 364.765 1247.71 363.649 1247.4 362.785C1247.09 361.921 1246.66 361.249 1246.11 360.769C1245.58 360.289 1244.94 359.965 1244.2 359.797C1243.45 359.605 1242.66 359.509 1241.82 359.509H1241.46V372.973ZM1263.77 377.941V354.541H1269.96V377.941H1263.77ZM1290.42 378.373C1288.79 378.373 1287.3 378.097 1285.96 377.545C1284.64 376.993 1283.5 376.201 1282.54 375.169C1281.6 374.113 1280.87 372.829 1280.34 371.317C1279.81 369.781 1279.55 368.053 1279.55 366.133C1279.55 364.213 1279.81 362.509 1280.34 361.021C1280.87 359.509 1281.6 358.249 1282.54 357.241C1283.5 356.209 1284.64 355.429 1285.96 354.901C1287.3 354.373 1288.79 354.109 1290.42 354.109C1292.03 354.109 1293.51 354.373 1294.85 354.901C1296.19 355.429 1297.33 356.209 1298.27 357.241C1299.23 358.273 1299.97 359.533 1300.5 361.021C1301.03 362.509 1301.29 364.213 1301.29 366.133C1301.29 368.053 1301.03 369.781 1300.5 371.317C1299.97 372.829 1299.23 374.113 1298.27 375.169C1297.33 376.201 1296.19 376.993 1294.85 377.545C1293.51 378.097 1292.03 378.373 1290.42 378.373ZM1290.42 373.045C1291.84 373.045 1292.94 372.433 1293.73 371.209C1294.55 369.961 1294.96 368.269 1294.96 366.133C1294.96 363.997 1294.55 362.353 1293.73 361.201C1292.94 360.025 1291.84 359.437 1290.42 359.437C1289.01 359.437 1287.89 360.025 1287.07 361.201C1286.28 362.353 1285.89 363.997 1285.89 366.133C1285.89 368.269 1286.28 369.961 1287.07 371.209C1287.89 372.433 1289.01 373.045 1290.42 373.045Z" fill="#C19B30"></path>
<path d="M463.782 312.257C463.782 313.226 471.555 314.741 466.373 320.262C463.351 323.474 461 324.501 461.323 329.368C461.646 334.236 463.98 343.441 457.639 345.345C451.017 347.307 431.654 350.502 407.001 333.756C386.885 370.022 470.843 449.319 470.843 449.319C470.843 449.319 384.882 404.584 377.233 321.992C374.278 290.097 383.574 277.961 412.655 244.07C449.526 207.199 448.79 188.763 448.79 188.763C448.79 188.763 460.677 212.397 461.546 221.487C462.589 232.48 457.465 233.035 458.376 248.499C458.624 252.638 461.96 264.004 472.391 275.287C487.217 288.698 468.252 291.256 465.694 294.559C463.136 297.862 470.537 305.941 469.833 309.459C469.585 310.875 463.782 312.257 463.782 312.257Z" fill="#C19B30"></path>
<mask id="mask0_222_33" style="mask-type:alpha" maskUnits="userSpaceOnUse" x="239" y="147" width="207" height="313">
<path d="M387.472 259.128C416.943 228.333 435.624 199.663 441.281 189.177C445.144 185.728 449.476 174.028 435.9 154.823C418.93 130.816 351.876 169.724 346.909 169.724C341.942 169.724 308.002 184.211 286.479 214.012C264.955 243.813 258.747 319.973 241.362 352.672C227.455 378.831 278.338 433.108 305.518 456.977C356.567 459.598 454.112 462.027 435.9 450.768C413.135 436.695 381.678 374.609 375.469 359.294C369.932 345.635 350.635 297.622 387.472 259.128Z" fill="#1B194B"></path>
</mask>
<g mask="url(#mask0_222_33)">
<path d="M387.074 408.019C449.608 464.94 424.889 405.188 465.163 405.188C459.605 397.218 453.438 389.69 446.719 382.671C441.404 377.232 436.032 371.62 433.101 364.699C427.083 350.477 428.515 332.149 444.277 321.363C451.114 316.686 456.52 310.974 460.005 303.407C461.191 300.93 462.783 298.67 464.716 296.719L464.914 300.03C467.058 294.599 470.436 290.096 473.788 285.551C474.732 285.965 474.956 287.306 476.363 287.207C475.535 285.228 475.932 283.283 476.255 281.346C476.277 281.088 476.378 280.843 476.544 280.645C476.71 280.446 476.933 280.304 477.183 280.237C477.812 280.088 478.126 280.593 478.325 281.065C478.755 282.083 479.153 283.126 479.525 284.219C482.009 282.497 482.356 279.964 481.694 277.521C480.999 274.955 482.207 275.319 483.789 275.576C487.555 276.18 491.305 276.404 494.807 274.417C494.451 273.026 493.308 273.954 492.58 273.664C491.984 273.415 490.924 274.301 490.784 272.927C490.921 272.937 491.059 272.909 491.181 272.844C491.28 272.381 491.181 272.107 490.643 272.331C489.063 272.688 487.466 272.964 485.858 273.159C482.969 273.366 480.419 272.621 478.764 269.997C476.727 266.752 476.942 261.073 479.244 257.91C480.439 256.238 481.212 254.301 481.495 252.265C481.727 251.801 481.587 251.28 481.711 250.808C481.769 250.592 481.553 250.311 481.876 250.179C481.949 250.413 482.101 250.615 482.307 250.75L482.522 251.222C483.681 250.94 483.068 250.137 483.019 249.508C483.308 246.097 480.792 243.233 480.841 239.732C482.183 240.096 482.307 241.503 483.457 241.735C483.557 240.477 482.63 239.657 482.282 238.647C481.777 237.323 480.378 236.321 480.477 234.814C480.527 232.428 480.249 230.047 479.649 227.736C479.484 226.909 479.128 226.213 480.328 226.031C480.37 226.031 480.411 225.965 480.444 225.841C480.457 225.776 480.45 225.708 480.423 225.647C480.397 225.587 480.352 225.536 480.295 225.501C478.031 224.401 476.127 222.678 474.807 220.534C473.375 217.821 471.403 215.429 469.012 213.506C468.002 212.678 466.934 211.983 465.701 211.023C467.812 210.576 469.434 211.205 471.098 211.478C471.669 211.842 472.083 211.842 472.1 211.006L470.684 210.385C470.063 210.228 469.699 209.707 469.194 209.375C468.192 208.788 467.05 208.904 465.966 208.705C465.406 208.644 464.877 208.417 464.447 208.052C464.018 207.688 463.707 207.203 463.557 206.66C463.366 205.418 464.898 205.716 465.626 205.261C466.628 204.632 467.596 205.029 468.54 205.443C468.946 205.377 469.277 205.269 469.037 204.748C467.936 203.233 469.144 202.041 469.608 200.75C469.658 200.153 470.303 199.367 469.128 199.144C468.3 200.046 468.002 202.306 466.346 201.246C462.207 198.556 457.489 197.687 452.522 196.842C454.575 195.402 456.661 194.45 457.654 192.322C457.787 191.826 457.605 191.677 457.133 191.859C454.293 194.392 463.706 187.562 460.005 186.519C456.609 185.624 440.338 193.537 436.826 193.614C431.686 193.614 428.465 190.576 425.237 187.314C424.751 186.716 424.511 185.955 424.566 185.187C424.037 178.986 420.932 175.352 414.889 173.754C412.413 173.038 409.82 172.81 407.257 173.084C405.783 173.282 405.22 172.811 404.492 171.66C402.646 168.705 399.434 167.769 395.982 168.978C398.175 169.491 400.353 169.922 402.29 171.13C404.227 172.339 404.599 173.97 403.548 175.948C402.497 177.938 400.854 179.552 398.846 180.567C397.579 181.205 397.546 181.859 397.927 182.968C395.543 182.223 393.432 181.577 391.305 180.907C389.98 180.485 388.589 180.079 388.457 178.365C388.338 177.588 388.485 176.793 388.876 176.11C389.267 175.427 389.878 174.898 390.609 174.607C392.505 173.912 391.495 173.382 390.692 172.869C388.209 171.287 385.386 170.989 382.521 171.172C380.278 171.304 378.051 171.594 375.899 171.809L377.165 170.211C377.447 169.822 377.232 169.475 377.074 169.119C376.916 168.777 376.853 168.4 376.892 168.026C376.869 167.539 376.76 167.059 376.569 166.61C377.67 164.599 379.359 164.019 381.644 164.847C380.617 162.728 379.202 162.786 377.687 163.713C375.444 165.079 373.821 167.09 372.232 169.127C370.758 171.023 369.881 172.827 366.437 172.662C363.813 172.537 360.99 174.383 357.728 173.97C355.535 173.696 354.119 176.221 352.852 178.109C351.586 179.996 350.071 181.42 347.463 180.518C346.726 180.246 345.914 180.261 345.187 180.559C344.83 180.996 344.338 181.302 343.788 181.429C343.238 181.557 342.662 181.498 342.149 181.263C341.768 181.081 341.222 180.791 340.99 181.213C339.516 183.87 337.14 182.753 335.005 182.761C331.207 182.68 327.517 184.02 324.657 186.519C320.584 190.286 320.377 195.783 319.856 200.973C319.781 201.66 319.855 202.695 320.435 202.852C323.465 203.68 323.912 206.122 324.963 208.572C325.857 210.65 327.985 212.289 330.17 213.415C331.352 213.946 332.303 214.883 332.852 216.056C332.505 217.596 330.899 219.218 333.109 220.692C333.498 217.844 334.077 217.38 337.72 217.38C335.038 222.844 334.044 228.912 330.692 233.937C328.457 237.248 326.221 240.609 324.226 244.127C322.703 246.785 322.852 248.763 324.955 250.75C326.312 252.041 326.006 253.341 325.079 254.641C324.358 255.613 323.416 256.399 322.331 256.934C314.615 260.948 309.21 267.604 303.39 273.738C300.493 276.793 300.865 280.535 303.614 283.763C305.007 285.298 306.696 286.534 308.581 287.397C311.064 288.656 311.503 290.634 309.88 292.877C309.432 293.505 308.894 294.063 308.283 294.533C306.445 295.891 306.345 297.588 307.057 299.566C307.885 301.834 309.69 303.316 311.197 305.013C307.231 309.442 307.124 310.535 310.112 315.775C310.807 316.992 310.278 317.985 309.491 318.796C308.147 320.277 307.111 322.01 306.445 323.896C302.157 334.724 307.596 344.492 319.069 346.247C326.519 347.406 339.417 345.576 341.42 346.942C360.41 359.674 365.485 388.366 387.074 408.019Z" fill="#C19B30"></path>
</g>
</g>
<defs>
<clipPath id="clip0_222_33">
<rect width="1603" height="606" fill="white"></rect>
</clipPath>
</defs>
</svg>
